HIERARCHY
ROOT pelvis
{
	OFFSET 0.000000 0.000000 0.000000
	CHANNELS 6 Xposition Yposition Zposition Zrotation Xrotation Yrotation
	JOINT lfemur
	{
		OFFSET 11.446000 0.000000 0.000000
		CHANNELS 3 Zrotation Xrotation Yrotation
		JOINT ltibia
		{
			OFFSET 0.000000 -42.030400 0.000000
			CHANNELS 3 Zrotation Xrotation Yrotation
			JOINT lfoot
			{
				OFFSET 0.000000 -39.930200 0.000000
				CHANNELS 3 Zrotation Xrotation Yrotation
				JOINT ltoes
				{
					OFFSET 0.000000 0.000000 11.775800
					CHANNELS 3 Zrotation Xrotation Yrotation
					End Site
					{
					    OFFSET 0.000000 0.000000 5.000000
					}
				}
			}
		}
	}
	JOINT rfemur
	{
		OFFSET -11.446000 0.000000 0.000000
		CHANNELS 3 Zrotation Xrotation Yrotation
		JOINT rtibia
		{
			OFFSET 0.000000 -42.030400 0.000000
			CHANNELS 3 Zrotation Xrotation Yrotation
			JOINT rfoot
			{
				OFFSET 0.000000 -39.930200 0.000000
				CHANNELS 3 Zrotation Xrotation Yrotation
				JOINT rtoes
				{
					OFFSET 0.000000 0.000000 11.775800
					CHANNELS 3 Zrotation Xrotation Yrotation
					End Site
					{
					    OFFSET 0.000000 0.000000 5.000000
					}
				}
			}
		}
	}
	JOINT thorax
	{
		OFFSET 0.000000 11.255600 -5.000000
		CHANNELS 3 Zrotation Xrotation Yrotation
		JOINT head
		{
			OFFSET 0.000000 43.799300 0.000000
			CHANNELS 3 Zrotation Xrotation Yrotation
			End Site
			{
			    OFFSET 0.000000 5.000000 0.000000
			}
		}
		JOINT lclavicle
		{
			OFFSET 0.000000 39.863000 0.000000
			CHANNELS 3 Zrotation Xrotation Yrotation
			JOINT lhumerus
			{
				OFFSET 17.380600 4.958300 0.000000
				CHANNELS 3 Zrotation Xrotation Yrotation
				JOINT lradius
				{
					OFFSET 0.000000 -27.561300 0.000000
					CHANNELS 3 Zrotation Xrotation Yrotation
					JOINT lhand
					{
						OFFSET 0.000000 -26.933000 0.000000
						CHANNELS 3 Zrotation Xrotation Yrotation
						End Site
						{
						    OFFSET 0.000000 -5.000000 0.000000
						}
					}
				}
			}
		}
		JOINT rclavicle
		{
			OFFSET 0.000000 39.863000 0.000000
			CHANNELS 3 Zrotation Xrotation Yrotation
			JOINT rhumerus
			{
				OFFSET -17.380600 4.958300 0.000000
				CHANNELS 3 Zrotation Xrotation Yrotation
				JOINT rradius
				{
					OFFSET 0.000000 -27.561300 0.000000
					CHANNELS 3 Zrotation Xrotation Yrotation
					JOINT rhand
					{
						OFFSET 0.000000 -26.933000 0.000000
						CHANNELS 3 Zrotation Xrotation Yrotation
						End Site
						{
						    OFFSET 0.000000 -5.000000 0.000000
						}
					}
				}
			}
		}
	}
}
MOTION
Frames:	18
Frame Time:	0.0333333
76.284100 86.618900 10.961800 7.468991 2.951194 -83.429505 -5.639899 -16.410245 -5.656979 -0.000000 28.021625 -0.000000 0.000000 -2.596144 9.835661 -0.000000 -1.267140 -0.000000 -1.225932 -23.840378 -4.810467 0.000000 16.364261 -0.000000 0.000000 10.435629 -0.883824 0.000000 -29.566201 -0.000000 0.914436 11.925056 -1.675489 13.481797 19.152993 9.393472 -11.318183 -0.000000 2.448761 34.796384 7.948008 -32.367971 -0.000003 -84.371850 -22.552971 0.130822 -13.757072 -0.000000 23.576259 0.000000 -0.932184 -33.525401 2.640629 26.410320 0.000004 -75.726966 15.753460 11.070581 -7.204924 0.000000 
77.352600 86.915500 11.068300 7.720564 3.108535 -85.775541 -5.293385 -16.600140 -5.347888 0.000000 26.873532 0.000000 0.000000 -1.853341 10.857094 0.000000 -1.254387 -0.000000 -0.822417 -22.598764 -4.025041 -0.000000 20.113544 0.000000 -0.000000 8.356839 -2.610290 -0.000000 -29.563899 -0.000000 1.133314 11.691625 -1.539142 13.107523 19.563826 10.491989 -11.535770 -0.000000 2.659686 34.864185 8.849118 -31.600526 -0.000002 -84.422842 -22.106402 0.079903 -13.884456 0.000000 23.513440 -0.000000 -1.005194 -33.630058 3.482989 26.602446 0.000003 -76.244873 15.503867 10.880426 -7.142858 0.000000 
78.232400 87.127700 11.194100 7.877560 2.943004 -87.567421 -5.266357 -16.450242 -5.132491 -0.000000 25.453544 -0.000000 -0.000000 -1.144022 11.570095 -0.000000 -1.256726 -0.000000 -1.245199 -20.934528 -3.697874 -0.000000 23.178122 -0.000000 -0.000000 5.733305 -3.389775 0.000000 -29.557540 0.000000 1.132590 11.507571 -1.727795 12.670455 19.981079 11.519580 -11.954817 0.000000 2.801223 35.061771 9.653089 -31.020002 0.000009 -84.339048 -22.238562 0.718139 -13.763924 0.000000 23.320169 -0.000000 -1.031583 -33.858319 4.264564 26.819417 -0.000004 -76.556037 15.635621 10.975246 -7.173749 0.000000 
79.123400 87.215300 11.232000 8.428066 2.476532 -89.494281 -5.247773 -16.964151 -3.677027 -0.000000 24.484888 0.000000 -0.000000 -0.600563 11.551183 -0.000000 -1.253832 -0.000000 -2.044063 -19.337100 -3.139835 -0.000000 24.021512 -0.000000 -0.000000 4.056257 -3.041955 -0.000000 -29.557701 -0.000000 0.783368 10.922353 -1.356577 12.371543 20.226959 12.325904 -12.305078 0.000000 3.194134 35.176908 9.943030 -30.840767 -0.000004 -84.312916 -21.467236 0.590337 -13.773203 0.000000 22.948483 -0.000000 -1.190675 -33.955268 4.973557 26.883047 0.000003 -77.003467 16.189808 10.921178 -7.156194 0.000000 
79.858600 87.177400 11.257600 9.706169 2.944051 -90.182678 -4.681407 -18.854115 -3.265847 -0.000000 24.883424 0.000000 -0.000000 -0.976350 11.558697 -0.000000 -1.251322 -0.000000 -2.405310 -17.579767 -4.470429 -0.000000 22.456258 0.000000 0.000000 2.971233 -2.865567 -0.000000 -29.555659 -0.000000 1.681867 9.501711 -1.771984 12.072798 20.321826 12.590404 -12.911599 0.000000 3.126913 35.399311 10.291101 -30.758550 0.000008 -84.181798 -21.969703 0.557394 -13.737300 0.000000 22.543546 0.000000 -1.634579 -34.145562 5.470731 26.752201 0.000008 -77.199100 16.181957 10.971716 -7.172218 0.000000 
80.644500 87.159400 11.119000 10.424857 2.365023 -91.866367 -4.589258 -19.902274 -1.527726 -0.000000 24.639771 0.000000 0.000000 -0.677511 11.551847 -0.000000 -1.251431 -0.000000 -3.235426 -15.629868 -4.404115 -0.000000 20.095990 -0.000000 -0.000000 1.994826 -3.677659 -0.000000 -29.557189 -0.000000 1.222366 8.580675 -1.135429 11.926316 20.608049 12.919343 -13.158286 0.000000 3.518577 35.345737 10.074441 -31.109639 0.000020 -83.873955 -21.627907 0.774322 -13.788302 -0.000000 22.319486 -0.000000 -1.540558 -34.426156 6.103711 26.478650 -0.000006 -77.271278 16.110474 10.670752 -7.071881 -0.000000 
81.231500 87.131100 10.952900 10.744138 1.573918 -93.523557 -4.662766 -20.287039 0.153001 0.000000 24.140924 0.000000 -0.000000 -0.357833 11.652562 0.000000 -1.249761 -0.000000 -4.251069 -13.445850 -5.062870 -0.000000 17.681644 -0.000000 -0.000000 1.554690 -4.100964 0.000000 -29.552315 0.000000 0.645447 7.800564 -0.296550 11.643139 20.920435 12.946768 -13.592903 0.000000 3.400626 35.122686 10.303246 -30.963366 -0.000006 -83.635389 -21.557459 0.398007 -14.108692 0.000000 21.932873 -0.000000 -1.344781 -34.446625 6.711123 25.887169 -0.000006 -76.943735 16.478551 10.501532 -7.015415 -0.000000 
81.739800 87.118600 10.714500 10.961796 0.794536 -95.088193 -4.671157 -20.528471 1.684402 -0.000000 23.670427 0.000000 0.000000 -0.055900 11.624529 -0.000000 -1.251207 -0.000000 -5.194118 -11.513991 -6.536494 -0.000000 15.323567 -0.000000 -0.000000 1.916955 -3.551513 0.000000 -29.555515 -0.000000 0.104973 7.075256 0.368075 11.356805 21.119221 13.011948 -14.276764 -0.000000 3.956865 35.308203 9.833762 -31.334175 0.000001 -83.529954 -21.529676 0.665135 -13.872916 0.000000 21.549137 -0.000000 -1.012428 -34.489795 7.088974 25.516927 0.000000 -76.395206 16.663868 10.297780 -6.947514 0.000000 
82.280800 87.117600 10.496700 11.245163 -0.108992 -97.189911 -4.804123 -20.750124 2.684572 -0.000000 23.002036 0.000000 0.000000 0.084917 12.445025 -0.000000 -1.255806 -0.000000 -5.904616 -10.391321 -6.026570 -0.000000 13.422481 0.000000 -0.000000 2.335561 -4.090649 -0.000000 -29.561205 -0.000000 -0.298904 6.154896 1.267230 10.337907 21.782532 13.573148 -15.233334 0.000000 4.333156 35.412944 9.790701 -31.125946 -0.000001 -83.606762 -21.491518 0.825766 -13.854585 0.000000 20.547527 0.000000 -0.612170 -34.102274 7.005506 25.667820 -0.000005 -75.811195 16.468856 9.602733 -6.713494 0.000000 
82.779200 87.090500 10.203200 11.334515 -0.836494 -99.489455 -4.635716 -21.114421 3.794261 0.000000 23.063407 -0.000000 0.000000 0.081313 13.230822 0.000000 -1.255738 -0.000000 -6.330661 -10.166162 -5.175955 -0.000000 12.721756 -0.000000 -0.000000 2.350775 -4.283070 -0.000000 -29.559863 -0.000000 -0.418147 5.544321 2.021964 8.944450 22.317340 14.637392 -16.263949 0.000000 5.151267 35.423544 9.679727 -30.570153 0.000023 -83.762159 -21.438224 0.426756 -13.901812 -0.000000 19.649892 0.000000 -0.418591 -33.968258 6.614400 25.910034 -0.000000 -75.740118 16.661818 9.846543 -6.796119 -0.000000 
83.274800 87.066800 9.869300 11.180387 -1.540302 -101.673376 -4.405812 -21.276257 5.040356 -0.000000 23.125439 0.000000 0.000000 0.182320 13.895061 0.000000 -1.259067 0.000000 -6.701726 -10.482726 -5.066873 -0.000000 12.503727 0.000000 0.000000 2.420700 -3.589617 0.000000 -29.559661 -0.000000 -0.485619 5.254262 2.506421 7.613426 22.548280 15.617608 -17.078942 -0.000000 5.733080 35.156074 9.671551 -29.791315 -0.000003 -83.799807 -21.299908 0.126099 -13.602563 -0.000000 18.810547 -0.000000 -0.043153 -33.834820 6.115880 25.913368 -0.000001 -75.806535 17.214659 9.704394 -6.747638 -0.000000 
83.813000 87.030500 9.499500 10.945734 -2.279655 -103.371094 -4.314753 -21.384565 6.219121 -0.000000 23.080708 0.000000 -0.000000 0.523754 14.381663 0.000000 -1.264162 0.000000 -7.090938 -11.005610 -5.838472 -0.000000 11.909631 -0.000000 0.000000 3.155621 -2.734416 0.000000 -29.564313 -0.000000 -0.639083 5.369386 2.524886 6.398212 22.699692 16.855593 -17.416961 -0.000000 5.901897 34.599734 9.792490 -29.010082 0.000005 -83.826435 -20.383469 0.163270 -13.755620 -0.000000 18.370076 -0.000000 -0.054269 -34.147391 5.001826 26.112018 0.000008 -76.020234 16.926723 10.263891 -6.935634 0.000000 
84.388400 87.028100 8.918700 10.460361 -2.970286 -104.959355 -4.030290 -21.128242 7.826864 0.000000 22.790292 -0.000000 -0.000000 0.973774 14.493300 -0.000000 -1.276224 -0.000000 -7.129991 -11.515519 -6.005670 -0.000000 10.975402 -0.000000 0.000000 5.311434 -3.075910 0.000000 -29.566440 -0.000000 -0.989418 5.603513 2.629670 5.542427 22.690489 17.702777 -17.487524 -0.000000 5.702714 34.539447 10.043834 -28.885221 -0.000001 -83.829920 -20.917989 -0.242592 -13.925555 -0.000000 18.268247 0.000000 -0.123633 -34.264525 4.404936 25.832393 -0.000007 -76.079003 17.615390 9.328305 -6.618042 0.000000 
84.998100 86.987400 8.337900 10.220648 -3.322793 -105.560183 -3.828532 -21.407571 7.809464 -0.000000 23.029499 0.000000 0.000000 1.347723 15.204009 -0.000000 -1.284050 -0.000000 -7.032692 -12.455229 -6.828406 0.000000 11.698001 -0.000000 0.000000 5.576013 -2.958887 -0.000000 -29.564057 0.000000 -0.908796 5.807577 2.036495 5.058991 22.405797 18.077248 -17.494791 0.000000 5.267005 34.875975 10.086205 -29.243382 -0.000001 -84.019979 -20.543862 -0.185692 -13.746921 0.000000 18.426880 -0.000000 -0.195559 -34.600518 3.997933 25.019961 -0.000002 -76.407977 17.246427 10.060427 -6.866485 0.000000 
85.635500 86.955100 7.468800 9.867132 -3.336759 -106.206529 -2.994636 -21.765801 8.286036 -0.000000 23.918434 -0.000000 -0.000000 1.629847 15.609921 -0.000000 -1.295346 -0.000000 -6.471372 -13.400182 -6.191021 0.000000 13.504581 -0.000000 -0.000000 5.051014 -2.740331 -0.000000 -29.562441 -0.000000 -0.752943 6.142333 1.834600 4.786937 22.570060 18.575945 -17.000292 -0.000000 4.852913 35.075791 9.839482 -29.866818 0.000010 -83.852469 -20.958868 -0.569043 -14.100820 0.000000 18.781176 -0.000000 -0.667408 -34.870243 3.745924 24.265136 -0.000001 -76.757870 16.937170 9.806762 -6.780327 0.000000 
86.275700 86.868000 6.513300 9.438476 -3.197990 -106.232780 -2.197044 -22.129466 8.128786 0.000000 25.006257 -0.000000 0.000000 1.746292 16.053975 -0.000000 -1.313231 -0.000000 -5.858858 -13.708354 -5.379617 -0.000000 14.638364 -0.000000 -0.000000 4.466318 -2.971921 -0.000000 -29.564039 0.000000 -0.577278 6.631661 1.332694 5.034925 22.633457 18.717149 -16.208513 -0.000000 4.520989 35.177332 9.394629 -30.606333 -0.000012 -83.831009 -21.078848 -0.704826 -14.140549 -0.000000 19.305436 -0.000000 -0.904382 -35.250367 4.203487 23.057671 0.000004 -77.555925 16.764446 10.194492 -6.913783 0.000000 
86.987400 86.696800 5.428100 9.246612 -2.840970 -106.098849 -0.893823 -23.182413 8.494799 -0.000000 26.979357 -0.000000 -0.000000 1.677733 15.922776 -0.000000 -1.319122 -0.000000 -4.840224 -14.344528 -5.170950 0.000000 16.084561 -0.000000 0.000000 3.631370 -3.110321 -0.000000 -29.564251 -0.000000 -0.236893 7.000592 0.987196 5.813026 22.578025 18.529976 -15.262560 0.000000 4.001174 35.395101 9.190201 -31.243786 0.000011 -84.264564 -21.230410 -1.031720 -14.404984 -0.000000 19.990093 0.000000 -1.382296 -35.874512 4.526829 22.294083 0.000002 -78.611400 15.839524 9.697036 -6.744941 0.000000 
87.677700 86.463800 4.330900 8.837756 -2.437805 -105.937539 0.341692 -24.037583 8.630693 -0.000000 29.069834 -0.000000 0.000000 1.507527 15.949445 0.000000 -1.321957 0.000000 -3.874113 -15.039469 -5.300026 -0.000000 18.140602 -0.000000 -0.000000 2.408672 -3.138348 0.000000 -29.561195 -0.000000 0.016080 7.530502 0.631542 6.810035 22.577492 18.340581 -14.369864 0.000000 3.404481 35.444110 9.447941 -31.346957 0.000011 -84.987758 -21.305785 -0.498523 -14.289884 -0.000000 20.786826 0.000000 -0.996451 -36.506397 5.764266 20.843323 -0.000004 -79.961541 14.520551 10.470523 -7.007061 -0.000000 
